<svg xmlns="http://www.w3.org/2000/svg" width="64" height="52" fill="none" xmlns:v="https://vecta.io/nano"><path d="M55.881 13.67v1.651C55.881 31.947 43.267 51 20.185 51 13.371 51.015 6.702 49.035 1 45.304c.99.134 1.989.195 2.988.182a25.18 25.18 0 0 0 15.586-5.349c-2.624-.039-5.169-.904-7.274-2.471a12.48 12.48 0 0 1-4.449-6.263 11.39 11.39 0 0 0 2.377.248c1.116 0 2.226-.15 3.302-.446a12.5 12.5 0 0 1-10.055-12.3v-.165a12.25 12.25 0 0 0 5.68 1.552A12.45 12.45 0 0 1 5.21 3.681 35.63 35.63 0 0 0 31.098 16.79a10.54 10.54 0 0 1-.347-2.873c-.093-2.561.606-5.088 2.001-7.238s3.419-3.817 5.795-4.775 4.991-1.161 7.487-.58 4.752 1.917 6.462 3.826a25.74 25.74 0 0 0 7.974-3.054 12.63 12.63 0 0 1-5.597 7.05 26.2 26.2 0 0 0 7.215-2.08 25.69 25.69 0 0 1-6.208 6.604z" stroke="#8b0000" stroke-width="2" stroke-linejoin="round"/></svg>