<svg xmlns="http://www.w3.org/2000/svg" width="47" height="50" fill="none" xmlns:v="https://vecta.io/nano"><path d="M27.877 44.805c-2.629-2.861-6.148-7.457-9.075-12.652 4.835-1.131 8.416-5.671 8.416-10.206 0-6.685-5.193-9.788-12-9.788-3.519 0-6.326.178-8.947.178-2.392 0-4.782 0-6.27-.058v1.732l2.266.416c1.559.3 2.446 1.011 2.446 4.715v23.516c0 3.703-.887 4.418-2.446 4.714L0 47.794v1.726c1.61-.058 4.416-.176 7.223-.176 2.685 0 6.148.118 7.641.176v-1.726l-3.105-.424c-1.61-.234-2.45-1.011-2.45-4.713v-9.966c1.433.12 2.685.12 4.6.12 3.641 6.504 7.103 11.401 9.069 13.667 1.794 2.152 4.538 3.523 8 3.523 1.013 0 2.086-.178 2.741-.48v-1.549c-2.148 0-4.296-1.494-5.843-3.167h0zm-14.27-14.682c-2.03 0-2.921-.054-4.298-.184V14.963c1.377-.12 3.223-.12 4.835-.12 5.017 0 7.998 2.629 7.998 7.401 0 4.716-3.221 7.878-8.536 7.878h0zm18.221-15.066a14.89 14.89 0 0 1-.162-1.101c-.05-.425-.082-.925-.102-1.514s-.028-1.301-.028-2.12l.028-2.116c.02-.59.052-1.095.102-1.517s.102-.787.162-1.101a6.62 6.62 0 0 1 .232-.909c.513-1.552 1.355-2.719 2.532-3.503S37.207 0 38.917 0c.879 0 1.676.102 2.384.31a7 7 0 0 1 1.88.853 6.19 6.19 0 0 1 1.407 1.263 6.88 6.88 0 0 1 .973 1.547c.098.176.07.316-.086.414l-2.172.893c-.184.098-.314.048-.416-.146-.487-.903-.903-1.496-1.586-1.928-.691-.43-1.331-.633-2.384-.633-1.145 0-1.656.228-2.374.741a3.89 3.89 0 0 0-1.541 2.102c-.062.174-.118.39-.184.643-.054.258-.098.573-.126.943s-.054.827-.078 1.367c-.016.54-.024 1.195-.024 1.954l.024 1.958.078 1.365c.028.374.072.687.126.947.066.25.122.466.184.642.308.961.747 1.486 1.395 1.908.639.428 1.375.735 2.52.735 1.017 0 1.948-.29 2.555-.732.602-.441 1.101-1.025 1.325-1.822.098-.336.224-.753.31-1.265.078-.512.078-1.053.078-1.8 0-.118-.066-.178-.176-.178H39.53c-.196 0-.292-.096-.292-.292V9.795c0-.198.096-.294.292-.294h6.384c.2 0 .294.096.294.294v1.704c0 .903 0 1.74-.094 2.516s-.212 1.447-.366 1.936c-.487 1.533-1.261 2.624-2.446 3.437-1.189.819-2.721 1.261-4.386 1.261-1.71 0-3.151-.393-4.326-1.175-1.177-.791-2.018-1.952-2.532-3.505a6.65 6.65 0 0 1-.232-.911h0z" fill="#8b0000"/></svg>