<svg xmlns="http://www.w3.org/2000/svg" width="50" height="51" fill="none" xmlns:v="https://vecta.io/nano"><path d="M5.357 0C2.4 0 0 2.433 0 5.433v39.839c0 2.999 2.4 5.433 5.357 5.433h39.286c2.958 0 5.357-2.433 5.357-5.433V5.433C50 2.433 47.6 0 44.643 0H5.357zm11.036 15.079c2.191 0 4.139.768 5.572 1.921 1.326 1.07 1.947 2.14 2.489 3.1l-3.786 1.918c-.271-.63-.597-1.289-1.434-2.001-.921-.741-1.839-.96-2.626-.96-3.083 0-4.706 2.908-4.706 6.144 0 4.252 2.138 6.363 4.706 6.363 2.489 0 3.491-1.755 4.138-2.879l3.762 1.947c-.705 1.124-1.381 2.222-2.896 3.29a9.21 9.21 0 0 1-5.328 1.702c-5.059 0-9.142-3.73-9.142-10.287 0-5.731 3.841-10.258 9.25-10.258h0zm8.424.603h5.085l3.949 13.771 3.92-13.771h5.085L36.23 35.049h-4.867l-6.545-19.366h0z" fill="#8b0000"/></svg>