<svg xmlns="http://www.w3.org/2000/svg" width="50" height="50" fill="none" xmlns:v="https://vecta.io/nano"><path d="M25 0C11.215 0 0 11.215 0 25s11.215 25 25 25 25-11.215 25-25S38.785 0 25 0zm0 3.846c11.706 0 21.154 9.448 21.154 21.154S36.706 46.154 25 46.154 3.846 36.706 3.846 25 13.294 3.846 25 3.846zm-9.615 5.769c-.51 0-.999.203-1.36.563s-.563.85-.563 1.36.203.999.563 1.36.85.563 1.36.563.999-.203 1.36-.563.563-.85.563-1.36-.203-.999-.563-1.36-.85-.563-1.36-.563zm-1.923 5.769v21.154h3.846V15.385h-3.846zm7.692 0v21.154h8.654a10.61 10.61 0 0 0 10.577-10.577 10.61 10.61 0 0 0-10.577-10.577h-8.654zM25 19.231h4.808c3.738 0 6.731 2.992 6.731 6.731s-2.992 6.731-6.731 6.731H25V19.231z" fill="#8b0000"/></svg>