<svg xmlns="http://www.w3.org/2000/svg" width="30" height="50" fill="none" xmlns:v="https://vecta.io/nano"><path d="M28.129.372A66.62 66.62 0 0 0 20.899 0C12.892 0 7.916 5.1 7.916 13.309v5.573H1.19A1.19 1.19 0 0 0 0 20.073v9.166a1.19 1.19 0 0 0 1.19 1.19h6.726v18.38A1.19 1.19 0 0 0 9.107 50h9.471a1.19 1.19 0 0 0 1.19-1.19V30.43h6.704a1.19 1.19 0 0 0 1.181-1.036l1.183-9.166a1.19 1.19 0 0 0-.286-.94 1.19 1.19 0 0 0-.895-.405h-7.888v-4.664c0-2.309.464-3.274 3.352-3.274h4.854a1.19 1.19 0 0 0 1.19-1.19V1.553A1.19 1.19 0 0 0 28.129.372h0zm-1.345 8.19l-3.667.002c-5.135 0-5.731 3.228-5.731 5.654v5.857a1.19 1.19 0 0 0 1.188 1.19h7.728l-.878 6.785h-6.847a1.19 1.19 0 0 0-1.19 1.19v18.375h-7.09V29.242a1.19 1.19 0 0 0-1.19-1.19H2.383v-6.785h6.723a1.19 1.19 0 0 0 1.19-1.19v-6.766c0-6.842 3.964-10.928 10.602-10.928a71.18 71.18 0 0 1 5.885.245v5.935h0z" fill="#8b0000"/></svg>