<svg xmlns="http://www.w3.org/2000/svg" width="50" height="50" fill="none" xmlns:v="https://vecta.io/nano"><path d="M46.346 0H3.654C1.538 0 0 1.538 0 3.654v42.692C0 48.269 1.731 50 3.654 50h42.692C48.462 50 50 48.462 50 46.346V3.654C50 1.538 48.269 0 46.346 0zM15.385 42.308H7.692V19.231h7.692v23.077zm-3.846-26.154c-2.5 0-4.615-2.115-4.615-4.615s2.115-4.615 4.615-4.615 4.615 2.115 4.615 4.615-2.115 4.615-4.615 4.615zm30.769 26.154h-7.692V30.769c0-3.077-.769-6.154-3.846-6.154s-3.846 3.077-3.846 6.154v11.538h-7.692V19.231h7.692v2.692h.385c.962-1.923 3.462-3.462 6.346-3.462 7.115 0 8.654 4.615 8.654 10.385v13.461z" fill="#8b0000"/></svg>